<mxfile host="app.diagrams.net" modified="2021-02-15T19:23:19.098Z" agent="5.0 (Windows NT 10.0; Win64; x64) AppleWebKit/537.36 (KHTML, like Gecko) Chrome/88.0.4324.150 Safari/537.36" etag="V7jkO56cJUkDXcvo6iFB" version="13.8.5" type="github">
  <diagram id="LmNHkAMFc_MV63TZnNPk" name="Page-1">
    <mxGraphModel dx="1248" dy="634" grid="1" gridSize="10" guides="1" tooltips="1" connect="1" arrows="1" fold="1" page="1" pageScale="1" pageWidth="850" pageHeight="1100" math="0" shadow="0">
      <root>
        <mxCell id="0" />
        <mxCell id="1" parent="0" />
        <mxCell id="h-9vXJWDtknDthflBs6K-2" value="&lt;span&gt;RQ1: What is the impact of complexity on LA?&lt;/span&gt;" style="rounded=0;whiteSpace=wrap;html=1;" parent="1" vertex="1">
          <mxGeometry x="15" y="280" width="160" height="60" as="geometry" />
        </mxCell>
        <mxCell id="h-9vXJWDtknDthflBs6K-3" value="RQ2: How can we better approach complex systems analysis in LA?" style="rounded=0;whiteSpace=wrap;html=1;" parent="1" vertex="1">
          <mxGeometry x="215" y="280" width="240" height="60" as="geometry" />
        </mxCell>
        <mxCell id="h-9vXJWDtknDthflBs6K-4" value="" style="shape=link;html=1;" parent="1" edge="1">
          <mxGeometry width="50" height="50" relative="1" as="geometry">
            <mxPoint x="10" y="390" as="sourcePoint" />
            <mxPoint x="830" y="390" as="targetPoint" />
          </mxGeometry>
        </mxCell>
        <mxCell id="h-9vXJWDtknDthflBs6K-5" value="" style="shape=link;html=1;" parent="1" edge="1">
          <mxGeometry width="50" height="50" relative="1" as="geometry">
            <mxPoint x="15" y="690" as="sourcePoint" />
            <mxPoint x="835" y="690" as="targetPoint" />
          </mxGeometry>
        </mxCell>
        <mxCell id="h-9vXJWDtknDthflBs6K-6" value="" style="shape=link;html=1;" parent="1" target="h-9vXJWDtknDthflBs6K-7" edge="1">
          <mxGeometry width="50" height="50" relative="1" as="geometry">
            <mxPoint x="2" y="250" as="sourcePoint" />
            <mxPoint x="822" y="250" as="targetPoint" />
          </mxGeometry>
        </mxCell>
        <mxCell id="h-9vXJWDtknDthflBs6K-7" value="Text" style="text;html=1;strokeColor=none;fillColor=none;align=center;verticalAlign=middle;whiteSpace=wrap;rounded=0;" parent="1" vertex="1">
          <mxGeometry x="802" y="240" width="40" height="20" as="geometry" />
        </mxCell>
        <mxCell id="h-9vXJWDtknDthflBs6K-8" value="CONTEXT" style="text;html=1;align=center;verticalAlign=middle;resizable=0;points=[];autosize=1;" parent="1" vertex="1">
          <mxGeometry x="1" y="24" width="70" height="20" as="geometry" />
        </mxCell>
        <mxCell id="h-9vXJWDtknDthflBs6K-9" value="QUESTIONS" style="text;html=1;align=center;verticalAlign=middle;resizable=0;points=[];autosize=1;" parent="1" vertex="1">
          <mxGeometry y="260" width="90" height="20" as="geometry" />
        </mxCell>
        <mxCell id="h-9vXJWDtknDthflBs6K-10" value="OBJECTIVES" style="text;html=1;align=center;verticalAlign=middle;resizable=0;points=[];autosize=1;" parent="1" vertex="1">
          <mxGeometry x="15" y="700" width="90" height="20" as="geometry" />
        </mxCell>
        <mxCell id="h-9vXJWDtknDthflBs6K-12" value="EVALUATION" style="text;html=1;align=center;verticalAlign=middle;resizable=0;points=[];autosize=1;" parent="1" vertex="1">
          <mxGeometry x="20" y="890" width="90" height="20" as="geometry" />
        </mxCell>
        <mxCell id="h-9vXJWDtknDthflBs6K-13" value="" style="shape=link;html=1;" parent="1" edge="1">
          <mxGeometry width="50" height="50" relative="1" as="geometry">
            <mxPoint x="15" y="870" as="sourcePoint" />
            <mxPoint x="835" y="870" as="targetPoint" />
          </mxGeometry>
        </mxCell>
        <mxCell id="h-9vXJWDtknDthflBs6K-14" value="Framing complexity within the field of LA" style="rounded=1;whiteSpace=wrap;html=1;" parent="1" vertex="1">
          <mxGeometry x="135" y="590" width="130" height="50" as="geometry" />
        </mxCell>
        <mxCell id="h-9vXJWDtknDthflBs6K-15" value="CT" style="rounded=1;whiteSpace=wrap;html=1;" parent="1" vertex="1">
          <mxGeometry x="525" y="585" width="50" height="20" as="geometry" />
        </mxCell>
        <mxCell id="h-9vXJWDtknDthflBs6K-16" value="Rosen Complexity" style="rounded=1;whiteSpace=wrap;html=1;" parent="1" vertex="1">
          <mxGeometry x="40" y="200" width="80" height="40" as="geometry" />
        </mxCell>
        <mxCell id="h-9vXJWDtknDthflBs6K-17" value="Causal Inference" style="rounded=1;whiteSpace=wrap;html=1;" parent="1" vertex="1">
          <mxGeometry x="440" y="585" width="70" height="40" as="geometry" />
        </mxCell>
        <mxCell id="h-9vXJWDtknDthflBs6K-18" value="Applied Top" style="rounded=1;whiteSpace=wrap;html=1;" parent="1" vertex="1">
          <mxGeometry x="610" y="575" width="70" height="40" as="geometry" />
        </mxCell>
        <mxCell id="h-9vXJWDtknDthflBs6K-25" value="Theory - Practitioner gap" style="rounded=1;whiteSpace=wrap;html=1;" parent="1" vertex="1">
          <mxGeometry x="1" y="590" width="120" height="50" as="geometry" />
        </mxCell>
        <mxCell id="h-9vXJWDtknDthflBs6K-27" value="Reductionism v White Flag" style="rounded=1;whiteSpace=wrap;html=1;" parent="1" vertex="1">
          <mxGeometry x="155" y="150" width="120" height="60" as="geometry" />
        </mxCell>
        <mxCell id="h-9vXJWDtknDthflBs6K-28" value="LA Applications" style="rounded=1;whiteSpace=wrap;html=1;" parent="1" vertex="1">
          <mxGeometry x="160" y="740" width="120" height="60" as="geometry" />
        </mxCell>
        <mxCell id="h-9vXJWDtknDthflBs6K-31" style="edgeStyle=orthogonalEdgeStyle;rounded=0;orthogonalLoop=1;jettySize=auto;html=1;entryX=0.5;entryY=0;entryDx=0;entryDy=0;" parent="1" edge="1">
          <mxGeometry relative="1" as="geometry">
            <mxPoint x="690" y="540" as="sourcePoint" />
            <mxPoint x="475" y="585" as="targetPoint" />
          </mxGeometry>
        </mxCell>
        <mxCell id="h-9vXJWDtknDthflBs6K-32" style="edgeStyle=orthogonalEdgeStyle;rounded=0;orthogonalLoop=1;jettySize=auto;html=1;entryX=0.75;entryY=0;entryDx=0;entryDy=0;" parent="1" target="h-9vXJWDtknDthflBs6K-15" edge="1">
          <mxGeometry relative="1" as="geometry">
            <mxPoint x="690" y="540" as="sourcePoint" />
          </mxGeometry>
        </mxCell>
        <mxCell id="h-9vXJWDtknDthflBs6K-33" style="edgeStyle=orthogonalEdgeStyle;rounded=0;orthogonalLoop=1;jettySize=auto;html=1;entryX=0.614;entryY=-0.05;entryDx=0;entryDy=0;entryPerimeter=0;" parent="1" target="h-9vXJWDtknDthflBs6K-18" edge="1">
          <mxGeometry relative="1" as="geometry">
            <mxPoint x="690" y="540" as="sourcePoint" />
          </mxGeometry>
        </mxCell>
        <mxCell id="h-9vXJWDtknDthflBs6K-30" value="Explore models of relationships between objects" style="rounded=1;whiteSpace=wrap;html=1;" parent="1" vertex="1">
          <mxGeometry x="690" y="520" width="120" height="50" as="geometry" />
        </mxCell>
        <mxCell id="h-9vXJWDtknDthflBs6K-34" value="Organisation / relationships over parts /&amp;nbsp; static" style="rounded=1;whiteSpace=wrap;html=1;fontStyle=1" parent="1" vertex="1">
          <mxGeometry x="610" y="110" width="120" height="60" as="geometry" />
        </mxCell>
        <mxCell id="h-9vXJWDtknDthflBs6K-35" value="What are better questions to ask of a complex LA system?" style="rounded=1;whiteSpace=wrap;html=1;" parent="1" vertex="1">
          <mxGeometry x="305" y="740" width="150" height="70" as="geometry" />
        </mxCell>
        <mxCell id="sfIImLreEvvxbb7hrz45-4" style="edgeStyle=orthogonalEdgeStyle;rounded=0;orthogonalLoop=1;jettySize=auto;html=1;exitX=0.5;exitY=1;exitDx=0;exitDy=0;entryX=0.5;entryY=0;entryDx=0;entryDy=0;" parent="1" source="h-9vXJWDtknDthflBs6K-36" target="sfIImLreEvvxbb7hrz45-2" edge="1">
          <mxGeometry relative="1" as="geometry" />
        </mxCell>
        <mxCell id="h-9vXJWDtknDthflBs6K-36" value="What questions are being asked (currently) of LA systems?" style="rounded=1;whiteSpace=wrap;html=1;" parent="1" vertex="1">
          <mxGeometry x="455" y="180" width="120" height="60" as="geometry" />
        </mxCell>
        <mxCell id="h-9vXJWDtknDthflBs6K-39" value="What is a complex system?" style="rounded=1;whiteSpace=wrap;html=1;" parent="1" vertex="1">
          <mxGeometry x="20" y="140" width="120" height="40" as="geometry" />
        </mxCell>
        <mxCell id="h-9vXJWDtknDthflBs6K-41" value="" style="endArrow=classic;html=1;exitX=0.5;exitY=1;exitDx=0;exitDy=0;entryX=0.5;entryY=0;entryDx=0;entryDy=0;" parent="1" source="h-9vXJWDtknDthflBs6K-39" target="h-9vXJWDtknDthflBs6K-16" edge="1">
          <mxGeometry width="50" height="50" relative="1" as="geometry">
            <mxPoint x="310" y="340" as="sourcePoint" />
            <mxPoint x="360" y="290" as="targetPoint" />
          </mxGeometry>
        </mxCell>
        <mxCell id="h-9vXJWDtknDthflBs6K-42" value="Define / model complexity" style="rounded=1;whiteSpace=wrap;html=1;" parent="1" vertex="1">
          <mxGeometry x="135" y="500" width="120" height="40" as="geometry" />
        </mxCell>
        <mxCell id="h-9vXJWDtknDthflBs6K-43" value="" style="endArrow=classic;html=1;exitX=0.75;exitY=1;exitDx=0;exitDy=0;entryX=0.5;entryY=0;entryDx=0;entryDy=0;" parent="1" source="h-9vXJWDtknDthflBs6K-2" target="h-9vXJWDtknDthflBs6K-42" edge="1">
          <mxGeometry width="50" height="50" relative="1" as="geometry">
            <mxPoint x="310" y="440" as="sourcePoint" />
            <mxPoint x="360" y="390" as="targetPoint" />
          </mxGeometry>
        </mxCell>
        <mxCell id="h-9vXJWDtknDthflBs6K-44" value="" style="endArrow=classic;html=1;exitX=0.657;exitY=0.98;exitDx=0;exitDy=0;exitPerimeter=0;entryX=0.5;entryY=0;entryDx=0;entryDy=0;" parent="1" source="h-9vXJWDtknDthflBs6K-16" target="h-9vXJWDtknDthflBs6K-2" edge="1">
          <mxGeometry width="50" height="50" relative="1" as="geometry">
            <mxPoint x="310" y="320" as="sourcePoint" />
            <mxPoint x="360" y="270" as="targetPoint" />
          </mxGeometry>
        </mxCell>
        <mxCell id="h-9vXJWDtknDthflBs6K-45" value="Lit Review" style="rounded=1;whiteSpace=wrap;html=1;" parent="1" vertex="1">
          <mxGeometry x="320" y="44" width="120" height="60" as="geometry" />
        </mxCell>
        <mxCell id="h-9vXJWDtknDthflBs6K-46" value="" style="endArrow=classic;html=1;exitX=1;exitY=0.5;exitDx=0;exitDy=0;entryX=0;entryY=0.5;entryDx=0;entryDy=0;" parent="1" source="h-9vXJWDtknDthflBs6K-2" target="h-9vXJWDtknDthflBs6K-3" edge="1">
          <mxGeometry width="50" height="50" relative="1" as="geometry">
            <mxPoint x="310" y="320" as="sourcePoint" />
            <mxPoint x="360" y="270" as="targetPoint" />
          </mxGeometry>
        </mxCell>
        <mxCell id="h-9vXJWDtknDthflBs6K-47" value="RQ3: How do we help people understand this analysis / apply?" style="rounded=0;whiteSpace=wrap;html=1;" parent="1" vertex="1">
          <mxGeometry x="610" y="280" width="220" height="60" as="geometry" />
        </mxCell>
        <mxCell id="h-9vXJWDtknDthflBs6K-48" value="Set of critical questions to help understand complex systems" style="rounded=1;whiteSpace=wrap;html=1;" parent="1" vertex="1">
          <mxGeometry x="20" y="740" width="120" height="60" as="geometry" />
        </mxCell>
        <mxCell id="h-9vXJWDtknDthflBs6K-49" value="Causal relationships or association? What types of relationships in education?" style="rounded=1;whiteSpace=wrap;html=1;" parent="1" vertex="1">
          <mxGeometry x="320" y="120" width="120" height="60" as="geometry" />
        </mxCell>
        <mxCell id="h-9vXJWDtknDthflBs6K-50" value="Patterns in LA...can we find invariants within LA systems (maybe NP complete, maybe hom bar codes)" style="rounded=1;whiteSpace=wrap;html=1;" parent="1" vertex="1">
          <mxGeometry x="280" y="480" width="140" height="160" as="geometry" />
        </mxCell>
        <mxCell id="h-9vXJWDtknDthflBs6K-51" value="METHODS" style="text;html=1;align=center;verticalAlign=middle;resizable=0;points=[];autosize=1;" parent="1" vertex="1">
          <mxGeometry x="6" y="400" width="80" height="20" as="geometry" />
        </mxCell>
        <mxCell id="h-9vXJWDtknDthflBs6K-52" value="&lt;span id=&quot;docs-internal-guid-866602d7-7fff-1301-0197-4444b002ad99&quot;&gt;&lt;p dir=&quot;ltr&quot; style=&quot;line-height: 1.38 ; margin-top: 0pt ; margin-bottom: 0pt&quot;&gt;&lt;span style=&quot;font-family: &amp;#34;arial&amp;#34; ; vertical-align: baseline&quot;&gt;&lt;font style=&quot;font-size: 12px&quot;&gt;When do I have enough data / data in the right structure to do causal inference?&lt;/font&gt;&lt;/span&gt;&lt;/p&gt;&lt;div&gt;&lt;span style=&quot;font-size: 12pt ; font-family: &amp;#34;arial&amp;#34; ; font-weight: 700 ; vertical-align: baseline&quot;&gt;&lt;br&gt;&lt;/span&gt;&lt;/div&gt;&lt;/span&gt;" style="rounded=1;whiteSpace=wrap;html=1;" parent="1" vertex="1">
          <mxGeometry x="575" y="740" width="150" height="90" as="geometry" />
        </mxCell>
        <mxCell id="h-9vXJWDtknDthflBs6K-59" style="edgeStyle=orthogonalEdgeStyle;rounded=0;orthogonalLoop=1;jettySize=auto;html=1;exitX=0.5;exitY=1;exitDx=0;exitDy=0;entryX=0.5;entryY=0;entryDx=0;entryDy=0;" parent="1" source="h-9vXJWDtknDthflBs6K-53" target="h-9vXJWDtknDthflBs6K-34" edge="1">
          <mxGeometry relative="1" as="geometry" />
        </mxCell>
        <mxCell id="h-9vXJWDtknDthflBs6K-53" value="Process Philosophy" style="rounded=1;whiteSpace=wrap;html=1;" parent="1" vertex="1">
          <mxGeometry x="625" y="24" width="90" height="40" as="geometry" />
        </mxCell>
        <mxCell id="h-9vXJWDtknDthflBs6K-54" value="Category Theory" style="rounded=1;whiteSpace=wrap;html=1;" parent="1" vertex="1">
          <mxGeometry x="740" y="44" width="90" height="40" as="geometry" />
        </mxCell>
        <mxCell id="h-9vXJWDtknDthflBs6K-55" value="Complexity" style="rounded=1;whiteSpace=wrap;html=1;" parent="1" vertex="1">
          <mxGeometry x="510" y="44" width="90" height="40" as="geometry" />
        </mxCell>
        <mxCell id="h-9vXJWDtknDthflBs6K-56" value="Learning" style="rounded=1;whiteSpace=wrap;html=1;" parent="1" vertex="1">
          <mxGeometry x="175" y="54" width="90" height="40" as="geometry" />
        </mxCell>
        <mxCell id="h-9vXJWDtknDthflBs6K-57" value="" style="endArrow=classic;html=1;exitX=0.5;exitY=1;exitDx=0;exitDy=0;entryX=0.25;entryY=0;entryDx=0;entryDy=0;" parent="1" source="h-9vXJWDtknDthflBs6K-55" target="h-9vXJWDtknDthflBs6K-34" edge="1">
          <mxGeometry width="50" height="50" relative="1" as="geometry">
            <mxPoint x="460" y="110" as="sourcePoint" />
            <mxPoint x="510" y="54" as="targetPoint" />
          </mxGeometry>
        </mxCell>
        <mxCell id="h-9vXJWDtknDthflBs6K-61" value="" style="endArrow=classic;html=1;exitX=0.5;exitY=1;exitDx=0;exitDy=0;entryX=0.75;entryY=0;entryDx=0;entryDy=0;" parent="1" source="h-9vXJWDtknDthflBs6K-54" target="h-9vXJWDtknDthflBs6K-34" edge="1">
          <mxGeometry width="50" height="50" relative="1" as="geometry">
            <mxPoint x="310" y="320" as="sourcePoint" />
            <mxPoint x="360" y="270" as="targetPoint" />
          </mxGeometry>
        </mxCell>
        <mxCell id="mA0smehwSJ2bHxJVc1lk-1" value="" style="endArrow=classic;html=1;entryX=0;entryY=0.5;entryDx=0;entryDy=0;exitX=1;exitY=0.5;exitDx=0;exitDy=0;" parent="1" source="h-9vXJWDtknDthflBs6K-3" target="h-9vXJWDtknDthflBs6K-47" edge="1">
          <mxGeometry width="50" height="50" relative="1" as="geometry">
            <mxPoint x="400" y="380" as="sourcePoint" />
            <mxPoint x="450" y="330" as="targetPoint" />
          </mxGeometry>
        </mxCell>
        <mxCell id="mA0smehwSJ2bHxJVc1lk-2" value="" style="endArrow=classic;html=1;exitX=0.45;exitY=1.017;exitDx=0;exitDy=0;exitPerimeter=0;entryX=0.75;entryY=0;entryDx=0;entryDy=0;" parent="1" source="h-9vXJWDtknDthflBs6K-3" target="h-9vXJWDtknDthflBs6K-42" edge="1">
          <mxGeometry width="50" height="50" relative="1" as="geometry">
            <mxPoint x="400" y="380" as="sourcePoint" />
            <mxPoint x="450" y="330" as="targetPoint" />
          </mxGeometry>
        </mxCell>
        <mxCell id="mA0smehwSJ2bHxJVc1lk-3" value="" style="endArrow=classic;html=1;exitX=0.25;exitY=1;exitDx=0;exitDy=0;entryX=0.5;entryY=0;entryDx=0;entryDy=0;" parent="1" source="h-9vXJWDtknDthflBs6K-2" target="mA0smehwSJ2bHxJVc1lk-5" edge="1">
          <mxGeometry width="50" height="50" relative="1" as="geometry">
            <mxPoint x="400" y="380" as="sourcePoint" />
            <mxPoint x="450" y="330" as="targetPoint" />
          </mxGeometry>
        </mxCell>
        <mxCell id="mA0smehwSJ2bHxJVc1lk-4" value="" style="endArrow=classic;html=1;exitX=0.5;exitY=1;exitDx=0;exitDy=0;entryX=0.5;entryY=0;entryDx=0;entryDy=0;" parent="1" source="h-9vXJWDtknDthflBs6K-42" target="h-9vXJWDtknDthflBs6K-14" edge="1">
          <mxGeometry width="50" height="50" relative="1" as="geometry">
            <mxPoint x="400" y="380" as="sourcePoint" />
            <mxPoint x="450" y="330" as="targetPoint" />
          </mxGeometry>
        </mxCell>
        <mxCell id="mA0smehwSJ2bHxJVc1lk-5" value="Confusion in communication and decision making around complex LA systems" style="rounded=1;whiteSpace=wrap;html=1;" parent="1" vertex="1">
          <mxGeometry y="490" width="120" height="80" as="geometry" />
        </mxCell>
        <mxCell id="mA0smehwSJ2bHxJVc1lk-6" value="" style="endArrow=classic;html=1;exitX=0.5;exitY=1;exitDx=0;exitDy=0;entryX=0.5;entryY=0;entryDx=0;entryDy=0;" parent="1" source="mA0smehwSJ2bHxJVc1lk-5" target="h-9vXJWDtknDthflBs6K-25" edge="1">
          <mxGeometry width="50" height="50" relative="1" as="geometry">
            <mxPoint x="400" y="360" as="sourcePoint" />
            <mxPoint x="450" y="310" as="targetPoint" />
          </mxGeometry>
        </mxCell>
        <mxCell id="sfIImLreEvvxbb7hrz45-6" style="edgeStyle=orthogonalEdgeStyle;rounded=0;orthogonalLoop=1;jettySize=auto;html=1;exitX=0.5;exitY=1;exitDx=0;exitDy=0;entryX=0.5;entryY=0;entryDx=0;entryDy=0;" parent="1" source="sfIImLreEvvxbb7hrz45-2" target="sfIImLreEvvxbb7hrz45-5" edge="1">
          <mxGeometry relative="1" as="geometry" />
        </mxCell>
        <mxCell id="sfIImLreEvvxbb7hrz45-2" value="RQ2_1: How can we better prepare analysts for the development of LA systems?" style="rounded=0;whiteSpace=wrap;html=1;" parent="1" vertex="1">
          <mxGeometry x="395" y="350" width="180" height="60" as="geometry" />
        </mxCell>
        <mxCell id="sfIImLreEvvxbb7hrz45-5" value="A step between data cleaning and EDA; includes Causal DAG and other context providing data from experts" style="rounded=1;whiteSpace=wrap;html=1;" parent="1" vertex="1">
          <mxGeometry x="440" y="450" width="210" height="60" as="geometry" />
        </mxCell>
        <mxCell id="Vjzqd0O3QX_9F2kNIF9c-1" value="" style="endArrow=classic;html=1;exitX=0.585;exitY=1.02;exitDx=0;exitDy=0;exitPerimeter=0;entryX=0;entryY=0.5;entryDx=0;entryDy=0;" edge="1" parent="1" source="h-9vXJWDtknDthflBs6K-3" target="sfIImLreEvvxbb7hrz45-2">
          <mxGeometry width="50" height="50" relative="1" as="geometry">
            <mxPoint x="400" y="350" as="sourcePoint" />
            <mxPoint x="450" y="300" as="targetPoint" />
          </mxGeometry>
        </mxCell>
      </root>
    </mxGraphModel>
  </diagram>
</mxfile>
